<svg width="101" height="101" viewBox="0 0 101 101" fill="none" xmlns="http://www.w3.org/2000/svg">
<path fill-rule="evenodd" clip-rule="evenodd" d="M50.0415 100.485V81.1055C70.5544 81.1055 86.4777 60.7631 78.6003 39.173C77.1536 35.2066 74.8573 31.6046 71.8721 28.6191C68.8869 25.6335 65.2851 23.3368 61.319 21.8896C39.7289 14.0704 19.3865 29.9355 19.3865 50.4485H0.0631104C0.0631104 17.7553 31.683 -7.74441 65.9648 2.9634C80.9252 7.66938 92.8807 19.5667 97.5285 34.5292C108.238 68.8652 82.7948 100.485 50.0415 100.485Z" fill="#0080FF"/>
<path fill-rule="evenodd" clip-rule="evenodd" d="M30.8325 81.1618H50.0977V61.8965H30.8345L30.8325 81.1618ZM15.9864 96.008H30.8305V81.1638H15.9864V96.008ZM3.57556 81.1638H15.9864V68.7509H3.57556V81.1638Z" fill="#0080FF"/>
</svg>
