<svg width="40" height="40" viewBox="0 0 512 512" fill="none" xmlns="http://www.w3.org/2000/svg">
                  <path
                    d="M107.208 0C166.416 0 214.416 47.9842 214.416 107.181C214.416 165.361 168.038 212.68 110.23 214.285C110.23 219.208 110.447 228.509 113.233 234.124C117.098 241.913 140.281 256.414 163.017 256.414H171.185C176.318 219.872 207.698 191.75 245.664 191.75C283.476 191.75 314.764 219.643 320.086 255.969H362.345C367.668 219.643 398.955 191.75 436.767 191.75C478.316 191.75 511.999 225.423 511.999 266.964C511.999 308.502 478.316 342.176 436.767 342.176C398.955 342.176 367.666 314.281 362.345 277.955H320.088C314.766 314.281 283.478 342.176 245.664 342.176C207.923 342.176 176.677 314.389 171.267 278.162L162.236 278.431C147.366 278.319 131.657 274.349 119.039 265.776C115.6 263.438 112.211 260.982 108.676 258.655L108.675 263.539C108.656 265.117 108.371 288.852 108.348 315.205L108.347 320.785C108.358 338.067 108.494 355.874 108.901 368.863C109.794 397.356 132.971 420.354 158.547 425.737C161.871 426.435 167.587 426.524 171.188 426.213C176.33 389.683 207.707 361.573 245.664 361.573C287.213 361.573 320.896 395.248 320.896 436.786C320.896 478.325 287.213 512 245.664 512C208.126 512 177.018 484.512 171.359 448.573H164.851C115.979 445.905 85.5941 401.079 86.1237 364.726C86.7926 318.971 86.2886 273.198 86.2813 227.433V212.305C37.0921 202.572 0 159.213 0 107.181C0 47.9842 47.998 0 107.208 0ZM245.664 383.558C216.261 383.558 192.424 407.389 192.424 436.786C192.424 466.183 216.261 490.014 245.664 490.014C275.068 490.014 298.905 466.183 298.905 436.786C298.905 407.389 275.068 383.558 245.664 383.558ZM245.664 213.736C216.261 213.736 192.424 237.567 192.424 266.964C192.424 296.359 216.261 320.19 245.664 320.19C275.068 320.19 298.905 296.359 298.905 266.964C298.905 237.567 275.068 213.736 245.664 213.736ZM436.767 213.736C407.363 213.736 383.528 237.567 383.528 266.964C383.528 296.359 407.363 320.19 436.767 320.19C466.171 320.19 490.008 296.359 490.008 266.964C490.008 237.567 466.171 213.736 436.767 213.736ZM467.088 244.553C471.277 248.732 471.393 255.447 467.429 259.763L467.108 260.101L434.49 292.79C430.333 296.956 423.661 297.095 419.336 293.186L418.991 292.86L403.022 277.14C398.695 272.88 398.64 265.919 402.901 261.594C407.054 257.378 413.768 257.219 418.113 261.154L418.451 261.475L426.635 269.529L451.538 244.573C455.827 240.273 462.789 240.266 467.088 244.553ZM275.108 244.392C279.298 248.571 279.413 255.286 275.449 259.604L275.129 259.94L242.51 292.629C238.353 296.795 231.681 296.934 227.356 293.025L227.011 292.698L211.042 276.979C206.715 272.719 206.66 265.758 210.921 261.433C215.072 257.217 221.788 257.058 226.134 260.995L226.471 261.314L234.655 269.368L259.559 244.412C263.847 240.114 270.809 240.105 275.108 244.392ZM107.208 21.9859C60.1446 21.9859 21.9914 60.1277 21.9914 107.181C21.9914 154.233 60.1446 192.377 107.208 192.377C154.271 192.377 192.424 154.233 192.424 107.181C192.424 60.1277 154.271 21.9859 107.208 21.9859ZM98.3412 56.2608C116.27 67.032 133.956 78.1734 151.403 89.683C166.018 99.3238 165.981 116.808 151.203 126.471C133.445 138.09 115.405 149.232 97.0859 159.895C82.1757 168.574 65.4861 158.594 65.0811 141.207C64.8209 130.001 65.0334 118.785 65.0188 107.572C65.006 96.6635 64.7915 85.7494 65.0554 74.8462C65.5008 56.3506 82.5276 46.7134 98.3412 56.2608ZM86.5227 74.0034V81.7406C86.5208 85.5716 86.5208 89.3514 86.519 93.089L86.5172 100.509V111.471C86.519 119.932 86.5227 128.259 86.5373 136.586C86.5447 140.505 88.5844 140.346 91.2233 138.712C106.434 129.283 121.652 119.866 136.877 110.458C139.394 108.906 139.465 107.285 136.997 105.727C120.69 95.4506 104.361 85.2089 86.5227 74.0034Z"
                    fill="#4A7EBF" />
                  <path
                    d="M266.454 447.758C272.526 447.758 277.45 442.837 277.45 436.765C277.45 430.695 272.526 425.772 266.454 425.772C260.383 425.772 255.458 430.695 255.458 436.765C255.458 442.837 260.383 447.758 266.454 447.758Z"
                    fill="#85B3DF" />
                  <path
                    d="M224.358 447.758C230.429 447.758 235.354 442.837 235.354 436.765C235.354 430.695 230.429 425.772 224.358 425.772C218.287 425.772 213.362 430.695 213.362 436.765C213.362 442.837 218.287 447.758 224.358 447.758Z"
                    fill="#85B3DF" />
                  <path
                    d="M436.768 490.014C407.363 490.014 383.528 466.183 383.528 436.786C383.528 407.389 407.363 383.558 436.768 383.558C466.17 383.558 490.009 407.389 490.009 436.786C490.009 466.183 466.17 490.014 436.768 490.014ZM436.768 361.573C398.955 361.573 367.667 389.467 362.345 425.793H350.041C344.669 425.793 340.312 430.716 340.312 436.786C340.312 442.858 344.669 447.779 350.041 447.779H362.345C367.667 484.105 398.955 512 436.768 512C478.317 512 512 478.325 512 436.786C512 395.248 478.317 361.573 436.768 361.573Z"
                    fill="#85B3DF" />
                </svg>