<svg width="500" height="500" viewBox="0 0 500 500" fill="none" xmlns="http://www.w3.org/2000/svg">
<g clip-path="url(#clip0_336_770)">
<g clip-path="url(#clip1_336_770)">
<path fill-rule="evenodd" clip-rule="evenodd" d="M186.893 8.76461C251.429 -7.78608 322.752 1.85857 379.667 36.9841C451.347 79.8493 498.141 160.936 499.332 244.404C501.952 328.705 458.015 412.292 387.406 458.134C308.82 511.001 200.11 513.025 119.857 462.778C38.0558 413.959 -9.6912 315.488 2.57298 220.947C12.4558 121.047 89.613 32.9358 186.893 8.76461Z" fill="#010101"/>
<path fill-rule="evenodd" clip-rule="evenodd" d="M177.01 49.6056C298.938 0.78698 448.489 90.9228 461.111 221.661C480.757 339.302 383.12 458.848 263.931 462.301C150.577 473.613 41.0325 377.524 37.8176 263.693C29.3637 171.533 90.0893 80.0874 177.01 49.6056Z" fill="white"/>
<path fill-rule="evenodd" clip-rule="evenodd" d="M189.274 237.379C243.927 192.727 297.39 146.528 353.233 103.187C323.942 148.195 293.818 192.608 264.527 237.617C239.403 237.736 214.279 237.736 189.274 237.379Z" fill="#010101"/>
<path fill-rule="evenodd" clip-rule="evenodd" d="M235.474 262.264C260.716 262.264 285.84 262.264 310.964 262.621C255.954 307.034 202.729 353.591 146.767 396.813C176.058 351.805 206.182 307.273 235.474 262.264Z" fill="#010101"/>
</g>
</g>
<defs>
<clipPath id="clip0_336_770">
<rect width="500" height="500" fill="white"/>
</clipPath>
<clipPath id="clip1_336_770">
<rect width="500" height="500" fill="white"/>
</clipPath>
</defs>
</svg>
